<?xml version="1.0" encoding="UTF-8" standalone="no"?>
<!-- Created with Inkscape (http://www.inkscape.org/) -->

<svg
   xmlns:dc="http://purl.org/dc/elements/1.1/"
   xmlns:cc="http://creativecommons.org/ns#"
   xmlns:rdf="http://www.w3.org/1999/02/22-rdf-syntax-ns#"
   xmlns:svg="http://www.w3.org/2000/svg"
   xmlns="http://www.w3.org/2000/svg"
   xmlns:sodipodi="http://sodipodi.sourceforge.net/DTD/sodipodi-0.dtd"
   xmlns:inkscape="http://www.inkscape.org/namespaces/inkscape"
   sodipodi:docname="layer-1.svg"
   inkscape:version="0.91 r13725"
   version="1.1"
   id="svg2"
   viewBox="0 0 383.98173 313.59841"
   height="88.50444mm"
   width="108.36818mm">
  <sodipodi:namedview
     inkscape:window-maximized="1"
     inkscape:window-y="1"
     inkscape:window-x="46"
     inkscape:window-height="855"
     inkscape:window-width="1394"
     showgrid="false"
     inkscape:current-layer="layer1"
     inkscape:document-units="px"
     inkscape:cy="173.17544"
     inkscape:cx="238.74122"
     inkscape:zoom="1.4"
     inkscape:pageshadow="2"
     inkscape:pageopacity="0"
     borderopacity="1"
     bordercolor="#000000"
     pagecolor="#646464"
     id="base"
     fit-margin-top="0"
     fit-margin-left="0"
     fit-margin-right="0"
     fit-margin-bottom="0" />
  <defs
     id="defs4" />
  <metadata
     id="metadata7">
    <rdf:RDF>
      <cc:Work
         rdf:about="">
        <dc:format>image/svg+xml</dc:format>
        <dc:type
           rdf:resource="http://purl.org/dc/dcmitype/StillImage" />
        <dc:title></dc:title>
      </cc:Work>
    </rdf:RDF>
  </metadata>
  <g
     inkscape:label="Layer 1"
     inkscape:groupmode="layer"
     id="layer1"
     transform="translate(-269.23043,351.36835)">
    <g
       id="g4842">
      <path
         inkscape:connector-curvature="0"
         id="path5372"
         d="m 531.65856,-271.26866 81.1693,-24.21875 c 3.01618,-0.89994 5.45643,2.14992 5.46534,6.90141 l 4.8e-4,0.29653 -89.95646,24.81997 0,-0.23641 c 0,-3.66321 1.46352,-7.0084 3.32134,-7.56275 l 0,0"
         style="color:#000000;font-style:normal;font-variant:normal;font-weight:normal;font-stretch:normal;font-size:medium;line-height:normal;font-family:sans-serif;text-indent:0;text-align:start;text-decoration:none;text-decoration-line:none;text-decoration-style:solid;text-decoration-color:#000000;letter-spacing:normal;word-spacing:normal;text-transform:none;direction:ltr;block-progression:tb;writing-mode:lr-tb;baseline-shift:baseline;text-anchor:start;white-space:normal;clip-rule:nonzero;display:inline;overflow:visible;visibility:visible;opacity:1;isolation:auto;mix-blend-mode:normal;color-interpolation:sRGB;color-interpolation-filters:linearRGB;solid-color:#000000;solid-opacity:1;fill:#ffffff;fill-opacity:1;fill-rule:nonzero;stroke:none;stroke-width:1;stroke-linecap:butt;stroke-linejoin:miter;stroke-miterlimit:1;stroke-dasharray:none;stroke-dashoffset:0;stroke-opacity:1;color-rendering:auto;image-rendering:auto;shape-rendering:auto;text-rendering:auto;enable-background:accumulate" />
      <path
         style="color:#000000;font-style:normal;font-variant:normal;font-weight:normal;font-stretch:normal;font-size:medium;line-height:normal;font-family:sans-serif;text-indent:0;text-align:start;text-decoration:none;text-decoration-line:none;text-decoration-style:solid;text-decoration-color:#000000;letter-spacing:normal;word-spacing:normal;text-transform:none;direction:ltr;block-progression:tb;writing-mode:lr-tb;baseline-shift:baseline;text-anchor:start;white-space:normal;clip-rule:nonzero;display:inline;overflow:visible;visibility:visible;opacity:1;isolation:auto;mix-blend-mode:normal;color-interpolation:sRGB;color-interpolation-filters:linearRGB;solid-color:#000000;solid-opacity:1;fill:#666666;fill-opacity:1;fill-rule:nonzero;stroke:none;stroke-width:1;stroke-linecap:butt;stroke-linejoin:miter;stroke-miterlimit:1;stroke-dasharray:none;stroke-dashoffset:0;stroke-opacity:1;color-rendering:auto;image-rendering:auto;shape-rendering:auto;text-rendering:auto;enable-background:accumulate"
         d="m 543.4554,-270.42024 c 4e-4,1.33826 -0.5635,2.58114 -1.2568,2.77523 -0.6901,0.19323 -1.2476,-0.72698 -1.2479,-2.05449 -10e-5,-0.63748 0.1306,-1.28704 0.3639,-1.80641 0.2335,-0.52015 0.551,-0.8677 0.8828,-0.96575 0.6931,-0.20484 1.2576,0.71321 1.258,2.05142 0,0 0,0 0,0"
         id="path5376"
         inkscape:connector-curvature="0" />
      <path
         style="color:#000000;font-style:normal;font-variant:normal;font-weight:normal;font-stretch:normal;font-size:medium;line-height:normal;font-family:sans-serif;text-indent:0;text-align:start;text-decoration:none;text-decoration-line:none;text-decoration-style:solid;text-decoration-color:#000000;letter-spacing:normal;word-spacing:normal;text-transform:none;direction:ltr;block-progression:tb;writing-mode:lr-tb;baseline-shift:baseline;text-anchor:start;white-space:normal;clip-rule:nonzero;display:inline;overflow:visible;visibility:visible;opacity:1;isolation:auto;mix-blend-mode:normal;color-interpolation:sRGB;color-interpolation-filters:linearRGB;solid-color:#000000;solid-opacity:1;fill:#666666;fill-opacity:1;fill-rule:nonzero;stroke:none;stroke-width:1;stroke-linecap:butt;stroke-linejoin:miter;stroke-miterlimit:1;stroke-dasharray:none;stroke-dashoffset:0;stroke-opacity:1;color-rendering:auto;image-rendering:auto;shape-rendering:auto;text-rendering:auto;enable-background:accumulate"
         d="m 539.4057,-269.25492 c 3e-4,1.32087 -0.5491,2.54555 -1.2244,2.73459 -0.6724,0.18819 -1.2154,-0.72212 -1.2156,-2.03245 -2e-4,-1.31029 0.5424,-2.53289 1.2147,-2.73161 0.3239,-0.0957 0.6352,0.0637 0.8652,0.44391 0.2304,0.38077 0.36,0.95127 0.3601,1.58556 0,0 0,0 0,0"
         id="path5378"
         inkscape:connector-curvature="0" />
      <path
         style="color:#000000;font-style:normal;font-variant:normal;font-weight:normal;font-stretch:normal;font-size:medium;line-height:normal;font-family:sans-serif;text-indent:0;text-align:start;text-decoration:none;text-decoration-line:none;text-decoration-style:solid;text-decoration-color:#000000;letter-spacing:normal;word-spacing:normal;text-transform:none;direction:ltr;block-progression:tb;writing-mode:lr-tb;baseline-shift:baseline;text-anchor:start;white-space:normal;clip-rule:nonzero;display:inline;overflow:visible;visibility:visible;opacity:1;isolation:auto;mix-blend-mode:normal;color-interpolation:sRGB;color-interpolation-filters:linearRGB;solid-color:#000000;solid-opacity:1;fill:#666666;fill-opacity:1;fill-rule:nonzero;stroke:none;stroke-width:1;stroke-linecap:butt;stroke-linejoin:miter;stroke-miterlimit:1;stroke-dasharray:none;stroke-dashoffset:0;stroke-opacity:1;color-rendering:auto;image-rendering:auto;shape-rendering:auto;text-rendering:auto;enable-background:accumulate"
         d="m 535.4603,-268.1196 c 2e-4,1.30389 -0.5353,2.51088 -1.1934,2.69509 -0.6552,0.1834 -1.1843,-0.71723 -1.1844,-2.01085 -10e-5,-1.29358 0.5288,-2.49856 1.184,-2.69222 0.3156,-0.0933 0.619,0.0653 0.843,0.44146 0.2245,0.37673 0.3508,0.94039 0.3508,1.56652 0,0 0,0 0,0"
         id="path5380"
         inkscape:connector-curvature="0" />
      <path
         style="color:#000000;font-style:normal;font-variant:normal;font-weight:normal;font-stretch:normal;font-size:medium;line-height:normal;font-family:sans-serif;text-indent:0;text-align:start;text-decoration:none;text-decoration-line:none;text-decoration-style:solid;text-decoration-color:#000000;letter-spacing:normal;word-spacing:normal;text-transform:none;direction:ltr;block-progression:tb;writing-mode:lr-tb;baseline-shift:baseline;text-anchor:start;white-space:normal;clip-rule:nonzero;display:inline;overflow:visible;visibility:visible;opacity:1;isolation:auto;mix-blend-mode:normal;color-interpolation:sRGB;color-interpolation-filters:linearRGB;solid-color:#000000;solid-opacity:1;fill:#000000;fill-opacity:0.5;fill-rule:nonzero;stroke:none;stroke-width:1;stroke-linecap:butt;stroke-linejoin:miter;stroke-miterlimit:1;stroke-dasharray:none;stroke-dashoffset:0;stroke-opacity:1;color-rendering:auto;image-rendering:auto;shape-rendering:auto;text-rendering:auto;enable-background:accumulate"
         d="m 528.70168,-261.44517 c 0,0 88.30629,-23.69905 88.30629,-23.69905 0,0 0.39881,213.50061 0.39881,213.50061 0.01,4.70747 -2.3859,7.71712 -5.36401,6.80413 0,0 -80.06419,-24.54534 -80.06419,-24.54534 -1.832,-0.56163 -3.273,-3.88729 -3.2731,-7.51163 0,0 0,-164.54872 0,-164.54872 0,0 0,0 0,0"
         id="path6913-6"
         inkscape:connector-curvature="0" />
      <path
         sodipodi:nodetypes="cccccccccccccccccccccccccccccccccccccccccccccccccccccccccccccccccccccccccccccccccccccccccccccccccccccccccccccccccccccccccccccsccsssscccscccscccscccccssccc"
         id="path6915-2"
         style="color:#000000;font-style:normal;font-variant:normal;font-weight:normal;font-stretch:normal;font-size:medium;line-height:normal;font-family:sans-serif;text-indent:0;text-align:start;text-decoration:none;text-decoration-line:none;text-decoration-style:solid;text-decoration-color:#000000;letter-spacing:normal;word-spacing:normal;text-transform:none;direction:ltr;block-progression:tb;writing-mode:lr-tb;baseline-shift:baseline;text-anchor:start;white-space:normal;clip-rule:nonzero;display:inline;overflow:visible;visibility:visible;opacity:1;isolation:auto;mix-blend-mode:normal;color-interpolation:sRGB;color-interpolation-filters:linearRGB;solid-color:#000000;solid-opacity:1;fill:#ffffff;fill-opacity:1;fill-rule:nonzero;stroke:none;stroke-width:1;stroke-linecap:butt;stroke-linejoin:miter;stroke-miterlimit:1;stroke-dasharray:none;stroke-dashoffset:0;stroke-opacity:1;color-rendering:auto;image-rendering:auto;shape-rendering:auto;text-rendering:auto;enable-background:accumulate"
         d="m 574.43867,-119.29602 9e-4,0.88911 33.62481,6.19385 0,-0.97636 -33.6241,-6.1066 0,0 m -0.01,-7.24362 8e-4,0.88885 33.61859,5.48307 0,-0.97604 -33.6178,-5.39588 0,0 m -0.01,-7.24142 9e-4,0.88857 33.6123,4.77275 0,-0.97572 -33.61159,-4.6856 0,0 m -0.01,-7.23756 8e-4,0.88831 33.6061,4.06303 0,-0.9754 -33.60531,-3.97594 0,0 m -0.01,-7.23715 9e-4,0.88803 33.59991,3.3536 0,-0.97508 -33.5991,-3.26655 0,0 m -0.01,-7.23489 9e-4,0.88777 33.5936,2.64461 0,-0.97475 -33.5928,-2.55763 0,0 m -0.01,-7.2327 7.9e-4,0.8875 33.5874,1.93607 0,-0.97442 -33.58659,-1.84915 0,0 m -0.01,-7.22884 9e-4,0.88724 33.5811,1.22814 0,-0.9741 -33.5804,-1.14128 0,0 m -0.01,-7.22844 9e-4,0.88697 33.57491,0.5205 0,-0.97378 -33.57411,-0.43369 0,0 m -39.52469,-4.92286 -0.1993,0.39238 0.01,60.00465 0.1997,0.43272 35.3639,7.02943 0.24879,-0.38998 -0.06,-67.08849 -0.2492,-0.43787 -35.3129,0.0572 0,0 m 0.1998,0.78482 34.8654,0.0337 0.058,66.11349 -34.91461,-6.84964 -0.01,-59.29753 0,0 m 3.97301,-71.2807 5.9339,-1.36891 0,-3.83159 -5.9334,1.44129 9e-4,3.75921 m 12.10129,-2.79167 6.4147,-1.47982 0,-3.98504 -6.41419,1.55805 0,3.90681 m 13.0921,-3.02023 6.9564,-1.60478 0,-4.15129 -6.95581,1.6896 0,4.06647 m 14.21081,-3.27829 7.5697,-1.74627 -0.01,-4.33204 -7.56901,1.83856 0,4.23975 m 15.477,-3.5704 7.3524,-1.69614 -0.01,-4.51807 -7.35169,1.78578 0.01,4.42843 m -17.27431,26.25484 -13.57269,27.74423 0.4533,0.71005 13.1211,-26.75994 25.5533,43.53465 0.5648,-0.8583 -26.11981,-44.37069 0,0 m -19.3958,13.23133 -18.35309,32.61856 0.3534,0.7512 17.9262,-31.77987 13.61189,29.80087 0.50581,-0.72065 -14.04421,-30.67011 0,0 m -22.57669,-16.74094 9e-5,0.50409 0.01,50.61185 73.27111,-2.36392 -0.1061,-63.44332 -73.1724,14.6913 0,0 m 0.5148,0.90814 71.86979,-14.19052 0.10071,60.80635 -71.96291,2.56177 -0.01,-49.1776 0,0 m -3.07249,-32.4092 c -2.4304,0.74666 -4.3762,5.23046 -4.3762,10.01473 l 0,0.38475 0,2.45931 0,163.92905 c 0,4.8186 1.9533,9.34759 4.3933,10.11413 l 80.0702,25.15505 c 3.9851,1.25197 7.2735,-2.84209 7.26139,-9.15549 l -0.40919,-214.54901 -0.01,-3.21528 -9e-4,-0.50301 c -0.012,-6.25459 -3.2996,-10.32759 -7.2605,-9.11072 l -79.672,24.47649 0,0 m 2e-4,2.65952 79.6765,-23.77333 c 2.9607,-0.8834 5.3561,2.11037 5.36479,6.77448 l 5e-4,0.29107 -88.30209,24.36352 0,-0.23208 c 0,-3.59583 1.4366,-6.8795 3.2603,-7.42366 l 0,0 m -3.2602,9.89973 88.3075,-23.69895 0.3987,213.49959 c 0.01,4.70745 -2.3858,7.7152 -5.36401,6.80218 l -80.06529,-24.54527 c -1.832,-0.56163 -3.273,-3.88579 -3.2731,-7.51011 l 0,-164.54744 0,0"
         inkscape:connector-curvature="0" />
      <path
         inkscape:connector-curvature="0"
         id="path6919-2"
         d="m 543.09826,-270.65111 c 4e-4,1.33826 -0.5635,2.58114 -1.2568,2.77523 -0.6901,0.19323 -1.2476,-0.72698 -1.2479,-2.05449 -10e-5,-0.63748 0.1306,-1.28704 0.3639,-1.80641 0.2335,-0.52015 0.551,-0.8677 0.8828,-0.96575 0.6931,-0.20484 1.2576,0.71321 1.258,2.05142 0,0 0,0 0,0"
         style="color:#000000;font-style:normal;font-variant:normal;font-weight:normal;font-stretch:normal;font-size:medium;line-height:normal;font-family:sans-serif;text-indent:0;text-align:start;text-decoration:none;text-decoration-line:none;text-decoration-style:solid;text-decoration-color:#000000;letter-spacing:normal;word-spacing:normal;text-transform:none;direction:ltr;block-progression:tb;writing-mode:lr-tb;baseline-shift:baseline;text-anchor:start;white-space:normal;clip-rule:nonzero;display:inline;overflow:visible;visibility:visible;opacity:1;isolation:auto;mix-blend-mode:normal;color-interpolation:sRGB;color-interpolation-filters:linearRGB;solid-color:#000000;solid-opacity:1;fill:#00ff00;fill-opacity:1;fill-rule:nonzero;stroke:none;stroke-width:1;stroke-linecap:butt;stroke-linejoin:miter;stroke-miterlimit:1;stroke-dasharray:none;stroke-dashoffset:0;stroke-opacity:1;color-rendering:auto;image-rendering:auto;shape-rendering:auto;text-rendering:auto;enable-background:accumulate" />
      <path
         inkscape:connector-curvature="0"
         id="path6921-5"
         d="m 539.04856,-269.48579 c 3e-4,1.32087 -0.5491,2.54555 -1.2244,2.73459 -0.6724,0.18819 -1.2154,-0.72212 -1.2156,-2.03245 -2e-4,-1.31029 0.5424,-2.53289 1.2147,-2.73161 0.3239,-0.0957 0.6352,0.0637 0.8652,0.44391 0.2304,0.38077 0.36,0.95127 0.3601,1.58556 0,0 0,0 0,0"
         style="color:#000000;font-style:normal;font-variant:normal;font-weight:normal;font-stretch:normal;font-size:medium;line-height:normal;font-family:sans-serif;text-indent:0;text-align:start;text-decoration:none;text-decoration-line:none;text-decoration-style:solid;text-decoration-color:#000000;letter-spacing:normal;word-spacing:normal;text-transform:none;direction:ltr;block-progression:tb;writing-mode:lr-tb;baseline-shift:baseline;text-anchor:start;white-space:normal;clip-rule:nonzero;display:inline;overflow:visible;visibility:visible;opacity:1;isolation:auto;mix-blend-mode:normal;color-interpolation:sRGB;color-interpolation-filters:linearRGB;solid-color:#000000;solid-opacity:1;fill:#ffff00;fill-opacity:1;fill-rule:nonzero;stroke:none;stroke-width:1;stroke-linecap:butt;stroke-linejoin:miter;stroke-miterlimit:1;stroke-dasharray:none;stroke-dashoffset:0;stroke-opacity:1;color-rendering:auto;image-rendering:auto;shape-rendering:auto;text-rendering:auto;enable-background:accumulate" />
      <path
         inkscape:connector-curvature="0"
         id="path6923-9"
         d="m 535.10316,-268.35047 c 2e-4,1.30389 -0.5353,2.51088 -1.1934,2.69509 -0.6552,0.1834 -1.1843,-0.71723 -1.1844,-2.01085 -10e-5,-1.29358 0.5288,-2.49856 1.184,-2.69222 0.3156,-0.0933 0.619,0.0653 0.843,0.44146 0.2245,0.37673 0.3508,0.94039 0.3508,1.56652 0,0 0,0 0,0"
         style="color:#000000;font-style:normal;font-variant:normal;font-weight:normal;font-stretch:normal;font-size:medium;line-height:normal;font-family:sans-serif;text-indent:0;text-align:start;text-decoration:none;text-decoration-line:none;text-decoration-style:solid;text-decoration-color:#000000;letter-spacing:normal;word-spacing:normal;text-transform:none;direction:ltr;block-progression:tb;writing-mode:lr-tb;baseline-shift:baseline;text-anchor:start;white-space:normal;clip-rule:nonzero;display:inline;overflow:visible;visibility:visible;opacity:1;isolation:auto;mix-blend-mode:normal;color-interpolation:sRGB;color-interpolation-filters:linearRGB;solid-color:#000000;solid-opacity:1;fill:#ff0000;fill-opacity:1;fill-rule:nonzero;stroke:none;stroke-width:1;stroke-linecap:butt;stroke-linejoin:miter;stroke-miterlimit:1;stroke-dasharray:none;stroke-dashoffset:0;stroke-opacity:1;color-rendering:auto;image-rendering:auto;shape-rendering:auto;text-rendering:auto;enable-background:accumulate" />
    </g>
  </g>
</svg>
